<?xml version="1.0" encoding="UTF-8"?>
<!-- Generator: Adobe Illustrator 16.0.0, SVG Export Plug-In . SVG Version: 6.00 Build 0)  -->
<!DOCTYPE svg PUBLIC "-//W3C//DTD SVG 1.1//EN" "http://www.w3.org/Graphics/SVG/1.1/DTD/svg11.dtd">
<svg version="1.1" id="Layer_1" xmlns="http://www.w3.org/2000/svg" xmlns:xlink="http://www.w3.org/1999/xlink" x="0px" y="0px" width="250px" height="150px" viewBox="0 0 250 150" enable-background="new 0 0 250 150" xml:space="preserve">
<g>
	<g>
		<g>
			<path d="M42.366,64.482c-10.033,0-18.167,8.133-18.167,18.167c0,10.033,8.134,18.166,18.167,18.166" fill="#ffffff"/>
		</g>
		<g>
			<path d="M12.234,64.482c10.034,0,18.167,8.133,18.167,18.167c0,10.033-8.133,18.166-18.167,18.166" fill="#ffffff"/>
		</g>
		<g>
			<path d="M65.309,100.773H51.681V64.226h13.215c10.376,0,20.907,4.336,20.907,18.17     C85.803,95.25,75.375,100.773,65.309,100.773z M64.69,71.763h-4.388v21.37h4.182c6.297,0,12.131-2.58,12.131-10.736     C76.614,74.189,70.781,71.763,64.69,71.763z" fill="#ffffff"/>
			<path d="M91.634,100.773V64.226h8.879v36.547H91.634z" fill="#ffffff"/>
			<path d="M126.014,101.754c-11.254,0-19.669-7.846-19.669-19.306c0-11.718,8.672-19.203,19.823-19.203     c5.109,0,10.633,1.858,13.68,5.369l-5.988,5.988c-1.652-2.271-4.594-3.355-7.381-3.355c-6.145,0-10.532,4.749-10.532,11.202     c0,6.659,4.285,11.202,10.375,11.202c3.459,0,6.195-1.549,7.744-3.717l6.143,5.781     C137.008,99.432,132.156,101.754,126.014,101.754z" fill="#ffffff"/>
			<path d="M161.527,101.754c-11.408,0-19.875-7.846-19.875-19.409c0-11.718,8.467-19.1,19.875-19.1     c11.459,0,19.926,7.382,19.926,19.1C181.453,93.908,172.986,101.754,161.527,101.754z M161.527,71.195     c-6.195,0-10.428,4.749-10.428,11.15c0,6.606,4.285,11.356,10.428,11.356s10.479-4.75,10.479-11.356     C172.006,75.944,167.721,71.195,161.527,71.195z" fill="#ffffff"/>
			<path d="M201.377,71.763v29.011h-8.828V71.763h-10.324v-7.537h29.477v7.537H201.377z" fill="#ffffff"/>
		</g>
	</g>
	<g>
		<path d="M225.588,59.504v-5.19h-1.854v-1.057h4.963v1.057h-1.848v5.19H225.588z" fill="#ffffff"/>
		<path d="M229.494,59.504v-6.248h1.889l1.135,4.262l1.119-4.262h1.893v6.248h-1.172v-4.918l-1.24,4.918h-1.215    l-1.234-4.918v4.918H229.494z" fill="#ffffff"/>
	</g>
	<circle fill="none" stroke-width="1.5" stroke-miterlimit="10" cx="229.631" cy="56.38" r="8.135" stroke="#ffffff"/>
</g>
</svg>